<mxfile host="app.diagrams.net" agent="Mozilla/5.0 (Windows NT 10.0; Win64; x64) AppleWebKit/537.36 (KHTML, like Gecko) Chrome/130.0.0.0 Safari/537.36 Edg/130.0.0.0" version="24.8.2">
  <diagram name="Page-1" id="zA1hnFjN4jEbG7JVX61b">
    <mxGraphModel dx="1163" dy="644" grid="0" gridSize="10" guides="1" tooltips="1" connect="1" arrows="1" fold="1" page="1" pageScale="1" pageWidth="1169" pageHeight="827" background="#FFFFFF" math="0" shadow="0">
      <root>
        <mxCell id="0" />
        <mxCell id="1" parent="0" />
        <mxCell id="Uyx2SZI_KD0D3UdQCrI0-3" value="S3 Bucket" style="sketch=0;outlineConnect=0;fontColor=#232F3E;gradientColor=none;fillColor=#7AA116;strokeColor=none;dashed=0;verticalLabelPosition=bottom;verticalAlign=top;align=center;html=1;fontSize=14;fontStyle=1;aspect=fixed;pointerEvents=1;shape=mxgraph.aws4.bucket;" vertex="1" parent="1">
          <mxGeometry x="805" y="421" width="67.31" height="70" as="geometry" />
        </mxCell>
        <mxCell id="Uyx2SZI_KD0D3UdQCrI0-13" style="edgeStyle=orthogonalEdgeStyle;rounded=0;orthogonalLoop=1;jettySize=auto;html=1;strokeWidth=2;fillColor=#d80073;strokeColor=#A50040;" edge="1" parent="1" source="Uyx2SZI_KD0D3UdQCrI0-6" target="Uyx2SZI_KD0D3UdQCrI0-3">
          <mxGeometry relative="1" as="geometry" />
        </mxCell>
        <mxCell id="Uyx2SZI_KD0D3UdQCrI0-6" value="" style="shape=image;html=1;verticalAlign=top;verticalLabelPosition=bottom;labelBackgroundColor=#ffffff;imageAspect=0;aspect=fixed;image=https://cdn1.iconfinder.com/data/icons/social-media-vol-3-1/24/_html_five-128.png;imageBackground=none;imageBorder=none;" vertex="1" parent="1">
          <mxGeometry x="799.66" y="274" width="78" height="78" as="geometry" />
        </mxCell>
        <mxCell id="Uyx2SZI_KD0D3UdQCrI0-14" style="edgeStyle=orthogonalEdgeStyle;rounded=0;orthogonalLoop=1;jettySize=auto;html=1;strokeWidth=2;fillColor=#d80073;strokeColor=#A50040;" edge="1" parent="1" source="Uyx2SZI_KD0D3UdQCrI0-7" target="Uyx2SZI_KD0D3UdQCrI0-3">
          <mxGeometry relative="1" as="geometry" />
        </mxCell>
        <mxCell id="Uyx2SZI_KD0D3UdQCrI0-7" value="Cloudfront" style="sketch=0;points=[[0,0,0],[0.25,0,0],[0.5,0,0],[0.75,0,0],[1,0,0],[0,1,0],[0.25,1,0],[0.5,1,0],[0.75,1,0],[1,1,0],[0,0.25,0],[0,0.5,0],[0,0.75,0],[1,0.25,0],[1,0.5,0],[1,0.75,0]];outlineConnect=0;dashed=0;verticalLabelPosition=bottom;verticalAlign=top;align=center;html=1;fontSize=14;fontStyle=1;aspect=fixed;shape=mxgraph.aws4.resourceIcon;resIcon=mxgraph.aws4.cloudfront;strokeColor=#8c4fff;" vertex="1" parent="1">
          <mxGeometry x="613" y="408" width="97" height="97" as="geometry" />
        </mxCell>
        <mxCell id="Uyx2SZI_KD0D3UdQCrI0-15" style="edgeStyle=orthogonalEdgeStyle;rounded=0;orthogonalLoop=1;jettySize=auto;html=1;fillColor=#d80073;strokeColor=#A50040;strokeWidth=2;" edge="1" parent="1" source="Uyx2SZI_KD0D3UdQCrI0-10" target="Uyx2SZI_KD0D3UdQCrI0-7">
          <mxGeometry relative="1" as="geometry" />
        </mxCell>
        <mxCell id="Uyx2SZI_KD0D3UdQCrI0-10" value="" style="sketch=0;outlineConnect=0;fontColor=#232F3E;gradientColor=none;fillColor=#232F3D;strokeColor=none;dashed=0;verticalLabelPosition=bottom;verticalAlign=top;align=center;html=1;fontSize=12;fontStyle=0;aspect=fixed;pointerEvents=1;shape=mxgraph.aws4.user;" vertex="1" parent="1">
          <mxGeometry x="239" y="425" width="62" height="62" as="geometry" />
        </mxCell>
        <mxCell id="Uyx2SZI_KD0D3UdQCrI0-17" value="" style="endArrow=none;dashed=1;html=1;dashPattern=1 3;strokeWidth=3;rounded=0;fillColor=#d80073;strokeColor=#A50040;fontSize=9;" edge="1" parent="1" source="Uyx2SZI_KD0D3UdQCrI0-10">
          <mxGeometry width="50" height="50" relative="1" as="geometry">
            <mxPoint x="262.9963546798028" y="503.4" as="sourcePoint" />
            <mxPoint x="820.4271120366799" y="476.00360696257405" as="targetPoint" />
            <Array as="points">
              <mxPoint x="265.42" y="667.4" />
            </Array>
          </mxGeometry>
        </mxCell>
        <mxCell id="Uyx2SZI_KD0D3UdQCrI0-20" value="" style="shape=mxgraph.mockup.markup.redX;fillColor=#d80073;html=1;shadow=0;whiteSpace=wrap;strokeColor=none;fontSize=9;" vertex="1" parent="1">
          <mxGeometry x="428" y="590" width="27" height="29" as="geometry" />
        </mxCell>
        <mxCell id="Uyx2SZI_KD0D3UdQCrI0-23" value="AWS Cloud" style="sketch=0;outlineConnect=0;gradientColor=none;html=1;whiteSpace=wrap;fontSize=12;fontStyle=0;shape=mxgraph.aws4.group;grIcon=mxgraph.aws4.group_aws_cloud;strokeColor=#AAB7B8;fillColor=none;verticalAlign=top;align=left;spacingLeft=30;fontColor=#AAB7B8;dashed=0;" vertex="1" parent="1">
          <mxGeometry x="442" y="245.5" width="601" height="421" as="geometry" />
        </mxCell>
      </root>
    </mxGraphModel>
  </diagram>
</mxfile>
